<svg xmlns="http://www.w3.org/2000/svg" xmlns:xlink="http://www.w3.org/1999/xlink" style="vertical-align: -0.05ex;" width="2405.6px" height="688px" viewBox="0 -666 2405.6 688"><defs><path id="MJX-1370-NCM-I-1D465" d="M527 373C527 419 482 442 432 442C389 442 355 419 329 373C308 419 273 442 222 442C173 442 133 419 101 374C74 335 60 306 60 287C60 278 65 273 75 273C84 273 90 278 92 287C111 345 153 413 220 413C253 413 269 392 269 351C269 330 251 252 216 118C199 51 169 18 126 18C112 18 99 21 88 26C114 36 127 54 127 80C127 106 114 119 87 119C54 119 29 91 29 58C29 12 76-11 125-11C167-11 201 12 228 58C247 12 283-11 335-11C383-11 423 12 455 57C482 96 496 125 496 144C496 153 491 158 481 158C472 158 467 153 464 144C447 87 402 18 337 18C304 18 287 38 287 79C287 92 292 120 303 165L337 300C356 375 387 413 431 413C445 413 458 410 469 405C442 396 429 378 429 351C429 325 443 312 470 312C502 312 527 341 527 373Z"/><path id="MJX-1370-NCM-N-3D" d="M698 367L80 367C64 367 56 359 56 344C56 329 64 321 80 321L698 321C714 321 722 329 722 344C722 356 711 367 698 367M698 179L80 179C64 179 56 171 56 156C56 141 64 133 80 133L698 133C714 133 722 141 722 156C722 169 711 179 698 179Z"/><path id="MJX-1370-NCM-N-30" d="M249-22C390-22 460 92 460 320C460 473 428 575 365 625C330 652 291 666 250 666C109 666 39 551 39 320C39 136 88-22 249-22M361 524C368 489 371 425 371 332C371 240 367 172 360 128C347 48 310 8 249 8C226 8 203 17 182 34C155 57 139 104 132 176C129 201 128 253 128 332C128 419 131 480 136 513C145 568 163 603 191 618C213 630 232 636 249 636C314 636 350 583 361 524Z"/></defs><g stroke="black" fill="black" stroke-width="0" transform="scale(1,-1)"><g><g><g><use xlink:href="#MJX-1370-NCM-I-1D465"/></g><g transform="translate(849.8,0)"><use xlink:href="#MJX-1370-NCM-N-3D"/></g><g transform="translate(1905.6,0)"><use xlink:href="#MJX-1370-NCM-N-30"/></g></g></g></g></svg>