<svg xmlns="http://www.w3.org/2000/svg" xmlns:xlink="http://www.w3.org/1999/xlink" style="vertical-align: -1.602ex;" width="9846.4px" height="1826px" viewBox="0 -1118 9846.4 1826"><defs><path id="MJX-1827-NCM-N-3D" d="M698 367L80 367C64 367 56 359 56 344C56 329 64 321 80 321L698 321C714 321 722 329 722 344C722 356 711 367 698 367M698 179L80 179C64 179 56 171 56 156C56 141 64 133 80 133L698 133C714 133 722 141 722 156C722 169 711 179 698 179Z"/><path id="MJX-1827-NCM-I-1D450" d="M328 325C328 300 341 287 368 287C404 287 427 318 427 354C427 410 368 442 308 442C239 442 176 412 122 353C68 294 41 229 41 159C41 61 106-11 204-11C257-11 304 2 345 27C379 48 404 69 420 90C427 99 430 106 430 109C430 120 425 126 414 126C409 126 404 122 398 114C365 70 324 42 277 30C246 22 223 18 206 18C149 18 121 53 121 122C121 184 150 274 174 317C198 361 249 413 308 413C346 413 372 402 386 381C355 378 328 358 328 325Z"/><path id="MJX-1827-NCM-N-73" d="M360 130C360 206 308 254 205 274C158 283 128 294 112 305C96 316 88 332 88 351C88 398 123 421 193 421C261 421 298 383 303 306C304 298 309 294 319 294C330 294 336 303 336 321L336 420C336 439 331 448 321 448C310 448 295 430 285 422C260 439 229 448 193 448C104 448 33 408 33 323C33 289 47 260 76 237C111 208 144 202 207 191C272 178 305 149 305 104C305 47 270 18 199 18C130 18 86 64 67 155C64 168 59 175 50 175C39 175 33 165 33 146L33 17C33-2 38-11 48-11C51-11 56-8 64-1C82 15 74 12 92 30C121 3 157-11 199-11C294-11 360 38 360 130Z"/><path id="MJX-1827-NCM-N-69" d="M194 601C194 631 169 657 139 657C109 657 83 631 83 601C83 571 108 544 138 544C169 544 194 570 194 601M143 3L247 0L247 39C214 39 194 41 188 45C182 49 180 60 180 78L180 445L37 433L37 395C70 395 91 392 98 387C105 382 108 368 108 345L108 79C108 60 105 48 98 44C91 40 69 39 33 39L33 0Z"/><path id="MJX-1827-NCM-N-6E" d="M314 413C359 413 382 378 382 307L382 79C382 60 379 48 372 44C365 40 343 38 306 38L306 0L421 3L535 0L535 38C503 38 482 39 472 42C462 45 458 52 458 64L458 251C458 298 457 331 454 350C444 411 399 442 320 442C257 442 210 412 179 352L179 442L32 431L32 393C68 393 90 390 98 384C106 378 109 365 109 342L109 79C109 60 105 48 98 44C91 40 69 38 32 38L32 0L147 3L261 0L261 38C224 38 203 40 196 44C189 48 185 60 185 79L185 259C185 340 236 413 314 413Z"/><path id="MJX-1827-NCM-N-2061" d=""/><path id="MJX-1827-NCM-I-1D436" d="M148 218C148 346 204 476 267 548C318 607 406 666 505 666C609 666 660 587 660 479C660 470 657 438 657 429C657 420 663 415 676 415C681 415 685 416 688 417C693 424 696 431 698 438L760 691C760 700 755 705 745 705C741 705 735 701 727 692L662 619C623 676 568 705 497 705C442 705 388 692 333 667C222 615 141 533 89 421C63 366 50 310 50 253C50 173 75 108 126 56C177 4 242-22 322-22C401-22 473 7 538 64C565 87 588 115 607 146C634 191 648 222 648 241C648 250 643 255 632 255C623 255 618 251 616 242C595 177 562 125 517 88C460 41 400 17 338 17C218 17 148 98 148 218Z"/><path id="MJX-1827-NCM-N-6D" d="M315 413C361 413 384 378 384 307L384 79C384 60 381 48 374 44C367 40 344 38 307 38L307 0L423 3L538 0L538 38C501 38 479 40 472 44C465 48 461 60 461 79L461 259C461 339 513 413 590 413C637 413 660 378 660 307L660 79C660 60 656 48 649 44C642 40 619 38 582 38L582 0L698 3L813 0L813 38C781 38 760 39 750 42C740 45 736 52 736 64L736 251C736 298 734 331 731 350C721 411 676 442 597 442C534 442 487 413 455 354C441 413 397 442 322 442C259 442 211 412 179 352L179 442L32 431L32 393C68 393 90 390 98 384C106 378 109 365 109 342L109 79C109 60 105 48 98 44C91 40 69 38 32 38L32 0L148 3L263 0L263 38C226 38 203 40 196 44C189 48 185 60 185 79L185 259C185 340 238 413 315 413Z"/><path id="MJX-1827-NCM-N-75" d="M267 18C198 18 185 47 185 112L185 442L32 431L32 393C71 393 94 389 100 382C106 375 109 350 109 306L109 159C109 120 112 90 119 67C134 15 189-11 262-11C316-11 357 14 385 65L385-11L535 0L535 38C499 38 478 40 470 46C462 52 458 66 458 89L458 442L306 431L306 393C341 393 362 390 370 384C378 378 382 365 382 342L382 167C382 88 340 18 267 18Z"/><path id="MJX-1827-NCM-N-6C" d="M144 3L255 0L255 39C219 39 197 40 190 44C183 48 180 60 180 79L180 694L33 683L33 645C68 645 90 642 97 636C104 630 108 616 108 593L108 79C108 60 105 48 98 44C91 40 69 39 33 39L33 0Z"/><path id="MJX-1827-NCM-N-74" d="M332 126L332 186L300 186L300 128C300 78 282 22 238 22C197 22 177 56 177 124L177 395L316 395L316 433L177 433L177 615L145 615C144 582 141 553 134 527C117 461 78 427 19 424L19 395L102 395L102 126C102 67 120 29 155 10C182-4 207-11 232-11C298-11 332 55 332 126Z"/><path id="MJX-1827-NCM-N-70" d="M298-13C360-13 413 9 456 54C499 99 521 152 521 215C521 276 501 328 462 372C421 419 371 442 311 442C260 442 216 422 178 383L178 442L28 431L28 393C65 393 87 391 94 386C101 381 105 368 105 347L105-115C105-134 101-146 94-150C87-154 65-155 28-155L28-194L142-191L257-194L257-155C220-155 199-154 192-150C185-146 181-134 181-115L181 44C203 13 246-13 298-13M304 409C345 409 377 386 402 340C421 301 431 260 431 215C431 168 420 125 398 86C372 39 337 16 294 16C252 16 219 36 194 75C185 88 181 101 181 114L181 333C210 384 251 409 304 409Z"/><path id="MJX-1827-NCM-N-65" d="M415 251C415 366 348 448 236 448C176 448 126 425 85 378C47 334 28 281 28 220C28 157 49 104 91 58C133 12 185-11 247-11C304-11 348 9 378 48C403 81 415 105 415 121C415 131 409 136 398 136C390 136 385 131 382 120C360 54 317 21 253 21C208 21 173 42 146 85C127 116 118 163 117 227L387 227C409 227 415 229 415 251M326 349C337 316 342 284 342 255L118 255C121 321 138 366 168 389C193 409 215 419 236 419C281 419 311 396 326 349Z"/><path id="MJX-1827-NCM-N-64" d="M374-11L527 0L527 38C491 38 470 40 462 46C454 52 450 67 450 90L450 694L301 683L301 645C336 645 358 642 366 636C374 630 377 616 377 593L377 390C345 427 305 445 257 445C195 445 142 423 99 378C56 333 34 279 34 216C34 155 54 102 95 57C136 12 186-11 247-11C298-11 341 8 374 47M261 415C304 415 339 396 364 358C371 347 374 336 374 323L374 121C374 108 371 97 364 86C336 41 298 19 251 19C210 19 177 39 151 80C133 110 124 155 124 215C124 324 161 415 261 415Z"/><path id="MJX-1827-NCM-N-20" d=""/><path id="MJX-1827-NCM-N-62" d="M298-11C360-11 413 11 456 56C499 101 521 154 521 217C521 278 501 332 460 377C419 422 369 445 308 445C259 445 215 426 178 387L178 694L28 683L28 645C64 645 86 642 94 636C102 630 105 616 105 593L105 0L136 0L169 58C201 12 244-11 298-11M294 19C253 19 219 38 194 77C185 90 181 104 181 117L181 320C181 333 184 344 191 354C220 395 257 415 304 415C345 415 378 395 404 354C422 324 431 279 431 218C431 110 393 19 294 19Z"/><path id="MJX-1827-NCM-N-79" d="M113-205C168-205 212-167 243-90L416 332C433 372 463 392 508 392L508 431C475 428 449 427 430 428L341 431L341 393C372 392 387 379 387 354C387 348 385 341 381 332L286 98L180 354C177 362 175 368 174 371C174 385 193 392 230 392L230 431L118 428C94 427 61 428 19 431L19 392C72 392 85 394 99 360L246 1L222-55C195-119 176-175 113-175C99-175 87-171 76-164C99-159 110-144 110-120C110-90 95-75 64-75C34-75 19-90 19-121C19-170 64-205 113-205Z"/></defs><g stroke="black" fill="black" stroke-width="0" transform="scale(1,-1)"><g><g><use xlink:href="#MJX-1827-NCM-N-3D"/></g><g transform="translate(1055.8,0)"><g transform="translate(1080.8,676)"><use xlink:href="#MJX-1827-NCM-I-1D450"/></g><g transform="translate(220,-686)"><g><use xlink:href="#MJX-1827-NCM-N-73"/><use xlink:href="#MJX-1827-NCM-N-69" transform="translate(394,0)"/><use xlink:href="#MJX-1827-NCM-N-6E" transform="translate(672,0)"/></g><g transform="translate(1228,0)"><use xlink:href="#MJX-1827-NCM-N-2061"/></g><g transform="translate(1394.7,0)"><use xlink:href="#MJX-1827-NCM-I-1D436"/></g></g><rect width="2354.7" height="60" x="120" y="220"/></g><g transform="translate(3650.4,0)"/><g transform="translate(3817.4,0)"/><g transform="translate(3984.4,0)"><use xlink:href="#MJX-1827-NCM-N-6D"/><use xlink:href="#MJX-1827-NCM-N-75" transform="translate(833,0)"/><use xlink:href="#MJX-1827-NCM-N-6C" transform="translate(1389,0)"/><use xlink:href="#MJX-1827-NCM-N-74" transform="translate(1667,0)"/><use xlink:href="#MJX-1827-NCM-N-69" transform="translate(2056,0)"/><use xlink:href="#MJX-1827-NCM-N-70" transform="translate(2334,0)"/><use xlink:href="#MJX-1827-NCM-N-6C" transform="translate(2890,0)"/><use xlink:href="#MJX-1827-NCM-N-69" transform="translate(3168,0)"/><use xlink:href="#MJX-1827-NCM-N-65" transform="translate(3446,0)"/><use xlink:href="#MJX-1827-NCM-N-64" transform="translate(3890,0)"/><use xlink:href="#MJX-1827-NCM-N-20" transform="translate(4446,0)"/><use xlink:href="#MJX-1827-NCM-N-62" transform="translate(4778,0)"/><use xlink:href="#MJX-1827-NCM-N-79" transform="translate(5334,0)"/></g></g></g></svg>